# xmcd
#
# Track frame offsets:
#	150
#	13317
#	25354
#	36118
#	46541
#	59161
#	68744
#	78506
#	91183
#	104259
#	116477
#	129084
#	138959
#	147315
#	158612
#	171327
#	182945
#	194376
#	206154
#	220549
#
# Disc length: 3079 seconds
# Revision: 1
# Processed by: cddbd v1.5.2PL0 Copyright (c) Steve Scherf et al.
# Submitted via: dBpowerAMP V12.0
#
DISCID=190c0514
DTITLE=Various Artist - The Ultimate Country Collection [Cd 2]
DYEAR=2003
DGENRE=Country
TTITLE0=Kenny Rogers - Shine On Ruby Mountain
TTITLE1=Hank Williams - Never Again (Will I Knock On Your Dor)
TTITLE2=Donna Fargo - Wishful Thinking
TTITLE3=Jerry Wallace - Empty Arms Again
TTITLE4=Porter Wagoner - Satisfied Mind
TTITLE5=Webb Pierce - In The Jailhouse Now
TTITLE6=Boxcar Willie - King Of The Road
TTITLE7=Kenny Rogers - Ruby Don't Take Your Love To Town
TTITLE8=Jerry Lee Lewis - You Win Again
TTITLE9=Billie Jo Spears - The Cheating King
TTITLE10=Freddy Fender - You'll Lose A Good Thing
TTITLE11=Mickey Gilley - I Miss You So
TTITLE12=Waylon Jennings - Abilene
TTITLE13=Kenny Rogers - Me And Bobby McGee
TTITLE14=Conway Twitty - Crazy Dreams
TTITLE15=Barbara Fairchild - You Can't Put The City In A Country Girl
TTITLE16=Jeannie C. Riley - Before The Next Teardrop Falls
TTITLE17=Billie Jo Spears - What Have They Done To Me Song Ma
TTITLE18=Lynn Anderson - Faithless Love
TTITLE19=Waylon Jennings - Burning Memories
EXTD=
EXTT0=
EXTT1=
EXTT2=
EXTT3=
EXTT4=
EXTT5=
EXTT6=
EXTT7=
EXTT8=
EXTT9=
EXTT10=
EXTT11=
EXTT12=
EXTT13=
EXTT14=
EXTT15=
EXTT16=
EXTT17=
EXTT18=
EXTT19=
PLAYORDER=
